<svg width="100px" height="114px" viewBox="0 0 100 114" version="1.1" xmlns="http://www.w3.org/2000/svg" xmlns:xlink="http://www.w3.org/1999/xlink">
    <title>svg</title>
    <desc>Created with Sketch.</desc>
    <g id="Page-1" stroke="none" stroke-width="1" fill="none" fill-rule="evenodd">
        <g id="svg" transform="translate(0.000000, -0.000000)" fill-rule="nonzero">
            <polygon id="Path" fill="#FFFFFF" points="50 0 100 28.2816537 100 84.8578811 50 113.139535 0 84.8578811 0 28.2816537"></polygon>
            <path d="M91.0723514,82.9069767 L51.6537468,105.206718 L51.6537468,87.8423773 L76.2144703,74.3281654 L91.0723514,82.9069767 Z M93.7726098,80.4651163 L93.7726098,33.8372093 L79.3540052,42.1705426 L79.3540052,72.1447028 L93.7726098,80.4651163 L93.7726098,80.4651163 Z M8.77260982,82.9069767 L48.1912145,105.206718 L48.1912145,87.8423773 L23.6175711,74.3281654 L8.77260982,82.9069767 Z M6.07235142,80.4651163 L6.07235142,33.8372093 L20.4909561,42.1705426 L20.4909561,72.1447028 L6.07235142,80.4651163 Z M7.76485788,30.8139535 L48.1912145,7.94573643 L48.1912145,24.7286822 L22.2868217,38.9793282 L22.0801034,39.0956072 L7.76485788,30.8139535 Z M92.0801034,30.8139535 L51.6537468,7.94573643 L51.6537468,24.7286822 L77.5581395,38.9664083 L77.7648579,39.0826873 L92.0801034,30.8139535 Z" id="Shape" fill="#8ED6FB"></path>
            <path d="M48.1912145,83.8888889 L23.9534884,70.5555556 L23.9534884,44.1602067 L48.1912145,58.1524548 L48.1912145,83.8888889 Z M51.6537468,83.8888889 L75.8914729,70.5684755 L75.8914729,44.1602067 L51.6537468,58.1524548 L51.6537468,83.8888889 Z M25.5943152,41.1111111 L49.9224806,27.7390181 L74.250646,41.1111111 L49.9224806,55.1550388 L25.5943152,41.1111111 Z" id="Shape" fill="#E33E26"></path>
        </g>
    </g>
</svg>